<?xml version="1.0" standalone="no"?>
<!DOCTYPE svg PUBLIC "-//W3C//DTD SVG 20010904//EN"
 "http://www.w3.org/TR/2001/REC-SVG-20010904/DTD/svg10.dtd">
<svg version="1.0" xmlns="http://www.w3.org/2000/svg"
 width="512.000000pt" height="512.000000pt" viewBox="0 0 512.000000 512.000000"
 preserveAspectRatio="xMidYMid meet">

<g transform="translate(0.000000,512.000000) scale(0.100000,-0.100000)"
fill="#000000" stroke="none">
<path d="M255 4146 c-41 -18 -83 -69 -90 -109 -3 -18 -4 -730 -3 -1584 3
-1549 3 -1552 24 -1579 11 -15 33 -37 48 -48 l27 -21 1659 0 1659 0 27 21 c15
11 37 33 48 48 20 26 21 42 24 406 l3 380 542 -271 c524 -262 543 -271 590
-266 51 4 88 26 121 71 21 27 21 30 21 1366 0 1336 0 1339 -21 1366 -33 45
-70 67 -121 71 -47 5 -66 -4 -590 -266 l-542 -270 -3 299 c-3 284 -4 300 -24
326 -11 15 -33 37 -48 48 -27 21 -28 21 -1674 23 -1354 2 -1652 0 -1677 -11z
m3107 -655 c3 -335 4 -351 24 -377 33 -45 70 -67 121 -71 47 -5 66 4 591 266
l542 271 0 -1020 0 -1020 -542 271 c-525 262 -544 271 -591 266 -51 -4 -88
-26 -121 -71 -20 -27 -21 -41 -24 -457 l-3 -429 -1439 0 -1440 0 0 1360 0
1360 1440 0 1439 0 3 -349z"/>
<path d="M1855 3186 c-37 -17 -70 -52 -84 -89 -7 -17 -11 -115 -11 -242 l0
-214 -229 -3 c-252 -3 -255 -4 -305 -72 -29 -39 -29 -133 0 -172 50 -68 53
-69 304 -72 l229 -3 3 -229 c3 -251 4 -254 72 -304 39 -29 133 -29 172 0 68
50 69 53 72 304 l3 229 229 3 c251 3 254 4 304 72 29 39 29 133 0 172 -50 68
-53 69 -304 72 l-229 3 -3 229 c-3 250 -4 254 -70 303 -34 25 -113 32 -153 13z"/>
</g>
</svg>
