<?xml version="1.0" standalone="no"?>
<!DOCTYPE svg PUBLIC "-//W3C//DTD SVG 20010904//EN"
 "http://www.w3.org/TR/2001/REC-SVG-20010904/DTD/svg10.dtd">
<svg version="1.0" xmlns="http://www.w3.org/2000/svg"
 width="512.000000pt" height="512.000000pt" viewBox="0 0 512.000000 512.000000"
 preserveAspectRatio="xMidYMid meet">

<g transform="translate(0.000000,512.000000) scale(0.100000,-0.100000)"
fill="#000000" stroke="none">
<path d="M2476 4466 c-82 -31 -142 -103 -153 -184 l-5 -38 -97 -23 c-409 -93
-695 -350 -825 -742 -67 -200 -96 -409 -96 -694 0 -370 -47 -694 -129 -899
-79 -199 -174 -315 -422 -517 l-102 -84 956 -3 c526 -1 1387 -1 1913 0 l955 3
-148 125 c-206 175 -306 305 -383 499 -73 186 -120 527 -120 876 0 373 -55
652 -173 880 -80 153 -203 294 -339 386 -121 82 -325 164 -461 184 -44 7 -47
9 -47 36 0 68 -52 144 -125 181 -51 26 -147 33 -199 14z m405 -399 c369 -97
593 -321 703 -699 42 -145 57 -282 66 -613 10 -332 26 -492 66 -674 57 -254
142 -432 278 -579 l58 -62 -1487 0 c-1415 0 -1487 1 -1474 18 7 9 30 35 49 57
160 179 258 437 305 800 9 66 20 260 25 430 6 171 15 346 21 390 55 413 221
686 510 839 185 98 322 127 594 122 165 -3 203 -7 286 -29z"/>
<path d="M2050 1050 c0 -35 37 -127 71 -176 98 -143 270 -233 444 -234 194 0
390 121 469 291 19 41 37 89 41 107 l7 32 -516 0 c-511 0 -516 0 -516 -20z"/>
</g>
</svg>
