<?xml version="1.0"?>
<svg width="495.3" height="127.5" xmlns="http://www.w3.org/2000/svg" xmlns:svg="http://www.w3.org/2000/svg" version="1.1" xml:space="preserve">
 <style id="style7427" type="text/css">.st2{fill:#282828}</style>
 <g class="layer">
  <title>Layer 1</title>
  <g id="g7433">
   <path d="m169.2,26.22c-1.79,-6.66 -7.04,-11.9 -13.7,-13.7c-12.16,-3.33 -60.8,-3.33 -60.8,-3.33s-48.64,0 -60.8,3.2c-6.53,1.79 -11.9,7.17 -13.7,13.82c-3.2,12.16 -3.2,37.38 -3.2,37.38s0,25.35 3.2,37.38c1.79,6.66 7.04,11.9 13.7,13.7c12.29,3.33 60.8,3.33 60.8,3.33s48.64,0 60.8,-3.2c6.66,-1.79 11.9,-7.04 13.7,-13.7c3.2,-12.16 3.2,-37.38 3.2,-37.38s0.13,-25.35 -3.2,-37.51z" fill="red" id="path7429"/>
   <path d="m79.21,40.3l0,46.59l40.45,-23.3l-40.45,-23.3z" fill="#fff" id="polygon7431"/>
  </g>
  <g id="g7451">
   <g id="g7449">
    <path class="st2" d="m236.12,107.89c-2.9,-1.93 -4.95,-4.95 -6.15,-9.16c-1.2,-4.1 -1.81,-9.64 -1.81,-16.4l0,-9.29c0,-6.88 0.72,-12.42 2.05,-16.64c1.45,-4.22 3.62,-7.24 6.51,-9.16c3.01,-1.93 6.88,-2.9 11.7,-2.9c4.7,0 8.56,0.97 11.46,2.9c2.9,1.93 4.95,5.06 6.28,9.16c1.33,4.1 2.05,9.64 2.05,16.64l0,9.29c0,6.88 -0.6,12.3 -1.93,16.52c-1.33,4.1 -3.38,7.24 -6.28,9.16c-2.9,1.93 -6.88,2.9 -11.82,2.9c-5.06,-0.12 -9.16,-1.08 -12.06,-3.01l0,-0.01zm16.28,-10.13c0.85,-2.05 1.2,-5.55 1.2,-10.26l0,-20.02c0,-4.58 -0.36,-7.96 -1.2,-10.13c-0.85,-2.17 -2.17,-3.13 -4.22,-3.13c-1.93,0 -3.38,1.08 -4.1,3.13c-0.85,2.17 -1.2,5.55 -1.2,10.13l0,20.02c0,4.7 0.36,8.2 1.2,10.26c0.72,2.05 2.17,3.13 4.22,3.13c1.93,0 3.26,-0.97 4.1,-3.13z" id="path7435"/>
    <path class="st2" d="m458.76,82.44l0,3.26c0,4.1 0.12,7.24 0.36,9.29c0.24,2.05 0.72,3.62 1.57,4.46c0.72,0.97 1.93,1.45 3.62,1.45c2.17,0 3.62,-0.85 4.46,-2.53c0.85,-1.68 1.2,-4.46 1.33,-8.44l12.42,0.72c0.12,0.6 0.12,1.33 0.12,2.3c0,5.91 -1.57,10.37 -4.83,13.27c-3.26,2.9 -7.84,4.34 -13.75,4.34c-7.11,0 -12.06,-2.3 -14.95,-6.76c-2.9,-4.46 -4.34,-11.34 -4.34,-20.75l0,-11.22c0,-9.64 1.45,-16.64 4.46,-21.1c3.01,-4.46 8.08,-6.63 15.2,-6.63c4.95,0 8.81,0.97 11.46,2.78c2.65,1.81 4.46,4.7 5.55,8.44c1.08,3.86 1.57,9.16 1.57,15.92l0,10.97l-24.24,0l0,0.24l-0.02,0zm1.81,-27.01c-0.72,0.97 -1.2,2.41 -1.45,4.46c-0.24,2.05 -0.36,5.18 -0.36,9.41l0,4.58l10.61,0l0,-4.58c0,-4.1 -0.12,-7.24 -0.36,-9.41c-0.24,-2.17 -0.85,-3.62 -1.57,-4.46c-0.72,-0.85 -1.93,-1.33 -3.38,-1.33c-1.68,-0.12 -2.78,0.36 -3.5,1.33z" id="path7437"/>
    <path class="st2" d="m200.9,81.23l-16.4,-59.45l14.35,0l5.79,26.89c1.45,6.63 2.53,12.3 3.26,17l0.36,0c0.48,-3.38 1.57,-8.93 3.26,-16.89l6.03,-27.01l14.35,0l-16.64,59.45l0,28.46l-14.24,0l0,-28.46l-0.12,0l0.02,0.01z" id="path7439"/>
    <path class="st2" d="m314.87,45.54l0,64.28l-11.34,0l-1.2,-7.84l-0.36,0c-3.01,5.91 -7.72,8.93 -13.87,8.93c-4.22,0 -7.36,-1.45 -9.41,-4.22c-2.05,-2.78 -3.01,-7.11 -3.01,-13.14l0,-48l14.47,0l0,47.16c0,2.9 0.36,4.95 0.97,6.15s1.68,1.81 3.13,1.81c1.2,0 2.41,-0.36 3.62,-1.2c1.2,-0.72 2.05,-1.68 2.53,-2.9l0,-51.02l14.47,0l-0.01,0z" id="path7441"/>
    <path class="st2" d="m389.05,45.54l0,64.28l-11.34,0l-1.2,-7.84l-0.36,0c-3.01,5.91 -7.72,8.93 -13.87,8.93c-4.22,0 -7.36,-1.45 -9.41,-4.22c-2.05,-2.78 -3.01,-7.11 -3.01,-13.14l0,-48l14.47,0l0,47.16c0,2.9 0.36,4.95 0.97,6.15s1.68,1.81 3.13,1.81c1.2,0 2.41,-0.36 3.62,-1.2c1.2,-0.72 2.05,-1.68 2.53,-2.9l0,-51.02l14.47,0l-0.01,0z" id="path7443"/>
    <path class="st2" d="m354.19,33.47l-14.35,0l0,76.22l-14.11,0l0,-76.22l-14.35,0l0,-11.7l42.81,0l0,11.7z" id="path7445"/>
    <path class="st2" d="m436.92,55.78c-0.85,-4.1 -2.3,-6.99 -4.22,-8.81s-4.7,-2.78 -8.08,-2.78c-2.65,0 -5.18,0.72 -7.48,2.3c-2.3,1.45 -4.1,3.5 -5.31,5.91l-0.12,0l0,-33.89l-13.99,0l0,91.18l11.94,0l1.45,-6.03l0.36,0c1.08,2.17 2.78,3.86 5.06,5.18c2.3,1.2 4.7,1.93 7.48,1.93c4.95,0 8.44,-2.3 10.74,-6.76c2.3,-4.46 3.5,-11.58 3.5,-21.1l0,-10.13c-0.12,-7.36 -0.48,-13.02 -1.33,-17l0.01,0zm-13.27,26.18c0,4.7 -0.24,8.32 -0.6,10.97c-0.36,2.65 -1.08,4.58 -1.93,5.66c-0.97,1.08 -2.17,1.68 -3.62,1.68c-1.2,0 -2.3,-0.24 -3.26,-0.85c-0.97,-0.6 -1.81,-1.45 -2.41,-2.53l0,-36.42c0.48,-1.68 1.33,-3.13 2.53,-4.34c1.2,-1.08 2.53,-1.68 3.86,-1.68c1.45,0 2.65,0.6 3.38,1.68c0.85,1.2 1.33,3.13 1.68,5.79c0.36,2.78 0.48,6.63 0.48,11.58l0,8.44l-0.12,0l0.01,0.01z" id="path7447"/>
   </g>
  </g>
 </g>
</svg>